<?xml version="1.0" encoding="utf-8"?>
<!-- Generator: Adobe Illustrator 24.3.0, SVG Export Plug-In . SVG Version: 6.00 Build 0)  -->
<svg version="1.1" xmlns="http://www.w3.org/2000/svg" xmlns:xlink="http://www.w3.org/1999/xlink" x="0px" y="0px"
	 viewBox="0 0 989 989" style="enable-background:new 0 0 989 989;" xml:space="preserve">
<style type="text/css">
	.st0{stroke:#000000;stroke-width:6;stroke-miterlimit:10;}
</style>
<g id="Layer_1">
</g>
<g id="Layer_2">
	<line class="st0" x1="53.5" y1="877.5" x2="943.5" y2="103.5"/>
	<path d="M287.68,563.78l-31.5-2.25c-9.3-1.2-15.98-4.27-20.02-9.22c-4.05-4.95-6.52-12.22-7.43-21.83l-0.9-21.6V298.73h2.7
		l109.8,272.25h12.98l21.13-18.25l73.44-215.75l18.45-58.05h2.7c-0.9,11.1-1.73,23.03-2.48,35.77c-0.75,12.75-1.12,23.78-1.12,33.07
		v126.35l110.7-95.62v-77.98l0.9-20.7c0.9-9.6,3.15-16.35,6.75-20.25c3.6-3.9,10.12-6.45,19.58-7.65c9.45-1.2,15.67-1.8,18.67-1.8
		h10.35v-7.2H470.27l-68.03,195.3l-75.68-195.3H159.88v7.2c3.02,0.3,7.56,0.6,13.61,0.9c6.05,0.3,12.16,0.9,18.37,1.8
		c6.19,0.9,11.48,3.75,15.87,8.55c4.39,4.8,7.64,10.8,9.75,18l0.91,20.7v208.8l-0.9,21.6c-0.9,9.3-3.53,16.5-7.88,21.6
		c-4.35,5.11-10.28,8.18-17.77,9.23c-7.5,1.05-13.88,1.65-19.12,1.8c-5.25,0.15-10.12,0.38-14.62,0.67v7.2h129.6V563.78z"/>
	<g>
		<path d="M607.12,445.76v258.79l-0.9,20.7c-0.9,9.9-3,16.65-6.3,20.25c-3.3,3.6-9.45,5.85-18.45,6.75l-29.7,1.35v7.2h220.05v-7.2
			c-4.2-0.29-9-0.6-14.4-0.9c-5.4-0.3-11.41-0.82-18-1.58c-6.6-0.75-11.48-3-14.62-6.75c-3.15-3.75-5.18-10.42-6.08-20.03l-0.9-20.7
			V441.3l18,0.9c9.3,0,20.1,7.65,32.4,22.95c12.3,15.3,24.08,33.23,35.33,53.78c11.25,20.55,20.92,39.98,29.02,58.27h7.65V432.75
			h-217.9L607.12,445.76z"/>
		<path d="M484.72,550.57v26.64h7.65c7.91-17.58,17.62-36.95,29.11-58.11L484.72,550.57z"/>
	</g>
	<g>
		<path d="M103.84,786.16C43.02,704.83,7,603.87,7,494.5C7,225.26,225.26,7,494.5,7c134.93,0,257.06,54.82,345.33,143.4l5.31-4.59
			C755.57,55.76,631.55,0,494.5,0C221.4,0,0,221.4,0,494.5c0,111.12,36.65,213.68,98.53,296.25L103.84,786.16z"/>
		<path d="M892.69,201.25l-5.33,4.56C946.85,286.63,982,386.46,982,494.5C982,763.74,763.74,982,494.5,982
			c-135.13,0-257.42-54.99-345.72-143.8l-5.33,4.56C233.05,933.07,357.24,989,494.5,989C767.6,989,989,767.6,989,494.5
			C989,384.72,953.22,283.3,892.69,201.25z"/>
	</g>
</g>
</svg>
